# xmcd CD database file
#
# Track frame offsets:
#	150
#	27571
#	53460
#	80079
#	103097
#	122373
#	141511
#	161656
#	183713
#
# Disc length: 2664 seconds
#
# Revision: 0
# Processed by: cddbd v1.5.2PL0 Copyright (c) Steve Scherf et al.
# Submitted via: CDex 1.70beta2
#
DISCID=7b0a6609
DTITLE=Aina Fridén - Up High
DYEAR=2017
DGENRE=Jazz
TTITLE0=High Wire
TTITLE1=Whisper Not
TTITLE2=Autumn in Rome
TTITLE3=That's All
TTITLE4=Autumn Serenade
TTITLE5=Moody's Mood
TTITLE6=Fennies from Heaven
TTITLE7=Moon Song
TTITLE8=Too Romantic
EXTD=YEAR: 2017
EXTT0=
EXTT1=
EXTT2=
EXTT3=
EXTT4=
EXTT5=
EXTT6=
EXTT7=
EXTT8=
PLAYORDER=
